# xmcd
#
# Track frame offsets:
#	150
#	11770
#	25475
#	35465
#	48595
#	58957
#	72375
#	84220
#	94107
#	106855
#	118237
#	128197
#	137810
#	149732
#	160952
#	171437
#	183237
#	192697
#	201125
#	213967
#	225227
#	236030
#	247757
#	258962
#	269145
#	279465
#	290460
#	300515
#	311125
#	323455
#	335605
#
# Disc length: 4608 seconds
#
# Revision: 0
# Processed by: cddbd v1.5.2PL0 Copyright (c) Steve Scherf et al.
# Submitted via: audiograbber 1.83.01
#
DISCID=d711fe1f
DTITLE=Wilma Lee And Stoney Cooper - Big Midnight Special CD2
DYEAR=2007
DGENRE=Country
TTITLE0=I'm Taking My Audition (To Sing Up In The Sky)
TTITLE1=Walking My Lord Up Calvary Hill
TTITLE2=All On Account Of You
TTITLE3=Stoney (Are You Mad At Your Gal)
TTITLE4=The West Virginia Polka
TTITLE5=Sunny Side Of The Mountain
TTITLE6=You Tried To Ruin My Name
TTITLE7=Have Mercy On Me
TTITLE8=I Cried Again
TTITLE9=The Clinch Mountain Waltz
TTITLE10=My Lord's Gonna Shake My Hand
TTITLE11=Will The Lord Let You In
TTITLE12=Idle Gossip, Idle Words 
TTITLE13=Don't Play That Song (On The Jukebox Tonight)
TTITLE14=What Can I Say
TTITLE15=You Belong To Someone Else
TTITLE16=Are You Walking And A-Talking For The Lord
TTITLE17=You Can't Take It With You (When You Go)
TTITLE18=You Can't Feel The Way I Do
TTITLE19=Brand New Baby
TTITLE20=Bamboozled
TTITLE21=Can You Forget
TTITLE22=Each Season Changes You
TTITLE23=Just For A While
TTITLE24=How It Hurts To Cry Alone
TTITLE25=Please Help Me Be Wrong
TTITLE26=We Make A Lovely Couple (You And I)
TTITLE27=Not Anymore
TTITLE28=Far Beyond The Starry Sky
TTITLE29=I Dreamed Of A Hillbilly Heaven
TTITLE30=The West Virginia Polka (Advert)
EXTD=
EXTT0=
EXTT1=
EXTT2=
EXTT3=
EXTT4=
EXTT5=
EXTT6=
EXTT7=
EXTT8=
EXTT9=
EXTT10=
EXTT11=
EXTT12=
EXTT13=
EXTT14=
EXTT15=
EXTT16=
EXTT17=
EXTT18=
EXTT19=
EXTT20=
EXTT21=
EXTT22=
EXTT23=
EXTT24=
EXTT25=
EXTT26=
EXTT27=
EXTT28=
EXTT29=
EXTT30=
PLAYORDER=
